#!OML:ASF X:\für Bonn\!DataBase\2005_08_10_Bjorn_Final\c3d\bjorn.ASF
:FULLY-SPECIFIED
:DEGREES
48
root 1.76027 19.3289 3.78374 -190.364 -28.31 -177.489
lowerback 10.5769 0.980432 -2.22755
upperback 11.5854 -0.300169 -5.73437
thorax 6.28991 -0.760326 -4.89079
lowerneck -13.033 -8.44713 -3.84839
upperneck 16.3393 -13.6863 11.8259
head 8.34669 -5.90225 2.91534
rclavicle -1.90833e-014 -4.92986e-014
rhumerus -49.9169 -16.0027 -90.6245
rradius 24.6218
rwrist 25.6634
rhand -10.4306 11.6679
rfingers 7.12502
rthumb 15.5689 -17.7255
lclavicle -1.90833e-014 -4.92986e-014
lhumerus 20.0814 -17.437 66.1191
lradius 103.601
lwrist -10.8834
lhand -43.9053 -29.7578
lfingers 7.12502
lthumb -16.7301 -0.458643
rfemur -40.038 3.10449 17.378
rtibia 89.8767
rfoot 1.05501 1.29642
rtoes -18.7807
lfemur -1.24413 -3.25769 -17.7583
ltibia 23.3685
lfoot -4.25787 -19.6229
ltoes 6.52135
49
root 1.7948 19.3388 3.80337 -191.053 -29.1177 -177.154
lowerback 11.4771 0.90514 -2.47381
upperback 11.9561 -0.562555 -5.86436
thorax 6.18831 -0.950346 -4.88392
lowerneck -13.1956 -8.5395 -3.90808
upperneck 16.0191 -13.9054 12.4559
head 8.34604 -5.96851 3.09421
rclavicle 8.74653e-015 -3.97569e-014
rhumerus -49.5452 -15.5039 -91.2516
rradius 24.611
rwrist 25.9474
rhand -10.1684 11.7778
rfingers 7.12502
rthumb 15.8215 -17.5957
lclavicle 8.74653e-015 -3.97569e-014
lhumerus 21.7084 -17.2138 66.9021
lradius 104.503
lwrist -10.1481
lhand -43.8052 -29.8699
lfingers 7.12502
lthumb -16.6336 -0.562678
rfemur -41.7103 3.17297 17.2685
rtibia 92.3412
rfoot 1.12963 2.21151
rtoes -18.5644
lfemur -0.544459 -3.73588 -17.5084
ltibia 22.7263
lfoot -3.6057 -19.9035
ltoes 7.09515
50
root 1.83156 19.3497 3.82221 -191.761 -29.9637 -176.806
lowerback 12.4307 0.815354 -2.70171
upperback 12.3355 -0.857108 -6.01012
thorax 6.07101 -1.15756 -4.89761
lowerneck -13.3628 -8.62384 -3.98858
upperneck 15.6345 -14.113 13.1455
head 8.33258 -6.03053 3.2968
rclavicle -1.35174e-014 6.36111e-015
rhumerus -49.2216 -14.9278 -91.926
rradius 24.7224
rwrist 26.1446
rhand -9.89988 11.8453
rfingers 7.12502
rthumb 16.0801 -17.5075
lclavicle -1.35174e-014 6.36111e-015
lhumerus 23.3923 -17.0594 67.7576
lradius 105.304
lwrist -9.51445
lhand -43.6252 -29.9915
lfingers 7.12502
lthumb -16.4603 -0.669765
rfemur -43.4142 3.19053 17.122
rtibia 94.7645
rfoot 1.40582 3.16007
rtoes -18.1298
lfemur 0.164824 -4.26783 -17.2702
ltibia 22.0551
lfoot -2.94095 -20.1709
ltoes 7.70003
51
root 1.86838 19.3637 3.83831 -192.509 -30.8325 -176.419
lowerback 13.4205 0.726322 -2.90584
upperback 12.7283 -1.15974 -6.13168
thorax 5.95478 -1.37008 -4.89307
lowerneck -13.6284 -8.73338 -4.08628
upperneck 15.316 -14.3494 13.7898
head 8.36158 -6.10416 3.47842
rclavicle 3.97569e-015 6.36111e-014
rhumerus -48.9283 -14.2662 -92.6001
rradius 24.9419
rwrist 26.045
rhand -9.57182 11.9017
rfingers 7.12502
rthumb 16.3959 -17.4254
lclavicle 3.97569e-015 6.36111e-014
lhumerus 25.15 -16.9979 68.6815
lradius 105.934
lwrist -8.95353
lhand -43.4913 -30.0182
lfingers 7.12502
lthumb -16.3314 -0.685852
rfemur -45.1224 3.15764 16.9434
rtibia 97.1456
rfoot 1.82361 4.17618
rtoes -17.7789
lfemur 0.911601 -4.85567 -17.0298
ltibia 21.3569
lfoot -2.3374 -20.385
ltoes 8.02846
52
root 1.9087 19.3762 3.85124 -193.272 -31.7292 -176.014
lowerback 14.4108 0.640727 -3.17161
upperback 13.1431 -1.4725 -6.21548
thorax 5.87096 -1.5964 -4.80849
lowerneck -13.8783 -8.84718 -4.26166
upperneck 14.9313 -14.5746 14.4861
head 8.37738 -6.17731 3.69116
rclavicle -6.36111e-014 -6.99722e-014
rhumerus -48.6555 -13.4968 -93.2638
rradius 25.2573
rwrist 25.7389
rhand -9.25642 11.9211
rfingers 7.12502
rthumb 16.6996 -17.3806
lclavicle -6.36111e-014 -6.99722e-014
lhumerus 26.9975 -17.0086 69.7101
lradius 106.43
lwrist -8.52232
lhand -43.2915 -29.9472
lfingers 7.12502
lthumb -16.139 -0.599188
rfemur -46.8509 3.04929 16.7493
rtibia 99.4777
rfoot 2.33541 5.24742
rtoes -18.0162
lfemur 1.64382 -5.42741 -16.7682
ltibia 20.6585
lfoot -1.60057 -20.6518
ltoes 8.77926
53
root 1.95185 19.389 3.85993 -194.054 -32.6828 -175.578
lowerback 15.4191 0.547281 -3.44116
upperback 13.5556 -1.80409 -6.2969
thorax 5.78315 -1.83368 -4.7115
lowerneck -14.151 -8.97461 -4.42693
upperneck 14.5872 -14.8323 15.1872
head 8.41721 -6.26463 3.89736
rclavicle 3.89618e-014 2.22639e-014
rhumerus -48.4101 -12.8733 -93.8109
rradius 25.5487
rwrist 25.5179
rhand -8.95702 12.0024
rfingers 7.12502
rthumb 16.9878 -17.2748
lclavicle 3.89618e-014 2.22639e-014
lhumerus 28.8941 -17.1443 70.7823
lradius 106.881
lwrist -8.1566
lhand -43.0828 -29.7632
lfingers 7.12502
lthumb -15.9381 -0.398963
rfemur -48.5776 2.86977 16.532
rtibia 101.737
rfoot 2.90594 6.37543
rtoes -18.5138
lfemur 2.32886 -5.9643 -16.4803
ltibia 20.0212
lfoot -0.929562 -21.024
ltoes 9.20168
54
root 1.99724 19.3954 3.86233 -194.89 -33.6507 -175.088
lowerback 16.4101 0.460014 -3.75904
upperback 14.0075 -2.14212 -6.31748
thorax 5.76123 -2.08419 -4.51931
lowerneck -14.4992 -9.10968 -4.63936
upperneck 14.2486 -15.0823 15.8694
head 8.47677 -6.34776 4.10246
rclavicle 1.98785e-014 7.31528e-014
rhumerus -48.1413 -12.2107 -94.2675
rradius 25.8851
rwrist 25.2013
rhand -8.66623 12.0604
rfingers 7.12502
rthumb 17.2677 -17.1924
lclavicle 1.98785e-014 7.31528e-014
lhumerus 30.767 -17.3093 71.9113
lradius 107.345
lwrist -7.86954
lhand -42.9067 -29.4832
lfingers 7.12502
lthumb -15.7685 -0.105465
rfemur -50.2424 2.61244 16.3301
rtibia 103.91
rfoot 3.44955 7.60818
rtoes -19.3409
lfemur 2.97916 -6.51723 -16.1518
ltibia 19.4883
lfoot -0.279011 -21.4177
ltoes 9.85222
55
root 2.04486 19.3971 3.86332 -195.754 -34.6527 -174.545
lowerback 17.4287 0.365272 -4.04964
upperback 14.4479 -2.49455 -6.33251
thorax 5.72222 -2.34069 -4.32759
lowerneck -14.7963 -9.26772 -4.91735
upperneck 13.8952 -15.374 16.6418
head 8.54445 -6.45353 4.34264
rclavicle -9.38264e-014 -7.95139e-014
rhumerus -47.9376 -11.5646 -94.6902
rradius 26.2515
rwrist 24.807
rhand -8.49105 12.142
rfingers 7.12502
rthumb 17.4363 -17.096
lclavicle -9.38264e-014 -7.95139e-014
lhumerus 32.5956 -17.5536 72.9739
lradius 107.738
lwrist -7.61481
lhand -42.8531 -29.2446
lfingers 7.12502
lthumb -15.7169 0.137172
rfemur -51.9364 2.2078 16.125
rtibia 106.01
rfoot 3.98568 8.92391
rtoes -20.1537
lfemur 3.54121 -7.06468 -15.787
ltibia 19.0632
lfoot 0.365283 -21.8664
ltoes 10.5466
